<?xml version="1.0" encoding="UTF-8"?>
<svg xmlns="http://www.w3.org/2000/svg" xmlns:xlink="http://www.w3.org/1999/xlink" width="215px" height="50px" viewBox="0 0 215 50" version="1.1">
  <title>wpbakery-logo-horizontal-white@2x</title>
  <g id="Website" stroke="none" stroke-width="1" fill="none" fill-rule="evenodd">
    <g id="wpbakery-logo-horizontal-white" fill="#FFFFFF">
      <g id="wpb-text" transform="translate(76, 9)" fill-rule="nonzero">
        <path d="M11.2096774,16.3075988 L8.96774194,21.7021277 C8.82575269,22.1908815 8.60903226,22.6139818 8.31758065,22.9714286 C7.87666667,23.4018237 7.34607527,23.6170213 6.72580645,23.6170213 C6.10553763,23.6170213 5.5786828,23.4018237 5.14524194,22.9714286 C4.8463172,22.6139818 4.62586022,22.1908815 4.48387097,21.7021277 L0.280241935,11.5805471 C0.168145161,11.2522796 0.0747311828,10.887538 0,10.4863222 C0,9.88085106 0.21858871,9.36474164 0.655766129,8.93799392 C1.09294355,8.5112462 1.62166667,8.29787234 2.24193548,8.29787234 C2.8622043,8.29787234 3.3927957,8.50942249 3.83370968,8.9325228 C4.12516129,9.29726444 4.33814516,9.72401216 4.47266129,10.212766 L4.48387097,10.212766 L6.72580645,15.4103343 L8.96774194,10.212766 L8.97895161,10.212766 C8.97895161,10.2054711 8.98268817,10.1945289 8.99016129,10.1799392 C9.04994624,9.70577508 9.26293011,9.2899696 9.6291129,8.9325228 C10.0625538,8.50942249 10.5894086,8.29787234 11.2096774,8.29787234 C11.8299462,8.29787234 12.3418548,8.49848024 12.7454032,8.89969605 C13.1414785,9.30091185 13.3694086,9.72765957 13.4291935,10.1799392 C13.4366667,10.1945289 13.4404032,10.2054711 13.4404032,10.212766 L13.4516129,10.212766 L15.6935484,15.4103343 L17.9354839,10.212766 L17.9466935,10.212766 C18.0812097,9.72401216 18.2979301,9.29726444 18.5968548,8.9325228 C19.0302957,8.50942249 19.5571505,8.29787234 20.1774194,8.29787234 C20.7976882,8.29787234 21.3264113,8.5112462 21.7635887,8.93799392 C22.2007661,9.36474164 22.4193548,9.88085106 22.4193548,10.4863222 C22.3446237,10.887538 22.2512097,11.2522796 22.1391129,11.5805471 L17.9354839,21.7021277 C17.7934946,22.1908815 17.5767742,22.6139818 17.2853226,22.9714286 C16.8444086,23.4018237 16.3138172,23.6170213 15.6935484,23.6170213 C15.0732796,23.6170213 14.5464247,23.4018237 14.1129839,22.9714286 C13.8140591,22.6139818 13.5936022,22.1908815 13.4516129,21.7021277 L11.2096774,16.3075988 Z" id="Path"></path>
        <path d="M32.6682028,18.8297872 C33.5759579,18.8297872 34.3519421,18.5021277 34.9961554,17.8468085 C35.6403687,17.1914894 35.9624753,16.4021277 35.9624753,15.4787234 C35.9624753,14.5553191 35.6403687,13.7659574 34.9961554,13.1106383 C34.3519421,12.4553191 33.5759579,12.1276596 32.6682028,12.1276596 C31.7604477,12.1276596 30.9844635,12.4553191 30.3402502,13.1106383 C29.6960369,13.7659574 29.3739302,14.5553191 29.3739302,15.4787234 C29.3739302,16.4021277 29.6960369,17.1914894 30.3402502,17.8468085 C30.9844635,18.5021277 31.7604477,18.8297872 32.6682028,18.8297872 Z M24.9815668,15.4787234 C24.9815668,13.3191489 25.7319289,11.4760638 27.2326531,9.94946809 C28.7333772,8.42287234 30.5452271,7.65957447 32.6682028,7.65957447 C34.7911784,7.65957447 36.6030283,8.42287234 38.1037525,9.94946809 C39.6044766,11.4760638 40.3548387,13.3191489 40.3548387,15.4787234 C40.3548387,17.6382979 39.6044766,19.481383 38.1037525,21.0079787 C36.6030283,22.5345745 34.7911784,23.2978723 32.6682028,23.2978723 C31.4676234,23.2978723 30.3695326,23.0558511 29.3739302,22.5718085 L29.3739302,27.7659574 C29.3739302,28.3840426 29.1598025,28.9109043 28.7315471,29.3465426 C28.3032916,29.7821809 27.7853588,30 27.1777485,30 C26.5701382,30 26.0522054,29.7821809 25.62395,29.3465426 C25.1956945,28.9109043 24.9815668,28.3840426 24.9815668,27.7659574 L24.9815668,15.4787234 Z" id="Shape"></path>
        <path d="M47.635181,18.0963271 C48.2793943,18.7600171 49.0553785,19.0918621 49.9631336,19.0918621 C50.8708887,19.0918621 51.6468729,18.7600171 52.2910862,18.0963271 C52.9352995,17.4326371 53.2574062,16.6331923 53.2574062,15.6979927 C53.2574062,14.7627931 52.9352995,13.9633483 52.2910862,13.2996583 C51.6468729,12.6359683 50.8708887,12.3041233 49.9631336,12.3041233 C49.0553785,12.3041233 48.2793943,12.6359683 47.635181,13.2996583 C46.9909677,13.9633483 46.6688611,14.7627931 46.6688611,15.6979927 C46.6688611,16.6331923 46.9909677,17.4326371 47.635181,18.0963271 Z M42.2764977,2.26257959 C42.2764977,1.63659924 42.4906254,1.10300755 42.9188808,0.661804531 C43.3471363,0.22060151 43.8650691,0 44.4726794,0 C45.0802897,0 45.5982225,0.22060151 46.0264779,0.661804531 C46.4547334,1.10300755 46.6688611,1.63659924 46.6688611,2.26257959 L46.6688611,8.51430249 C47.6644635,8.02407691 48.7625543,7.77896412 49.9631336,7.77896412 C52.0861093,7.77896412 53.8979592,8.55201215 55.3986833,10.0981082 C56.8994075,11.6442043 57.6497696,13.5108324 57.6497696,15.6979927 C57.6497696,17.885153 56.8994075,19.7517811 55.3986833,21.2978772 C53.8979592,22.8439732 52.0861093,23.6170213 49.9631336,23.6170213 C47.840158,23.6170213 46.0283081,22.8439732 44.5275839,21.2978772 C43.0268598,19.7517811 42.2764977,17.885153 42.2764977,15.6979927 L42.2764977,2.26257959 Z" id="Shape"></path>
        <path d="M67.8986175,19.2401216 C68.8063726,19.2401216 69.5823568,18.9191489 70.2265701,18.2772036 C70.8707834,17.6352584 71.1928901,16.8620061 71.1928901,15.9574468 C71.1928901,15.0528875 70.8707834,14.2796353 70.2265701,13.63769 C69.5823568,12.9957447 68.8063726,12.674772 67.8986175,12.674772 C66.9908624,12.674772 66.2148782,12.9957447 65.5706649,13.63769 C64.9264516,14.2796353 64.604345,15.0528875 64.604345,15.9574468 C64.604345,16.8620061 64.9264516,17.6352584 65.5706649,18.2772036 C66.2148782,18.9191489 66.9908624,19.2401216 67.8986175,19.2401216 Z M71.5991837,22.6978723 C70.4937722,23.3106383 69.2602502,23.6170213 67.8986175,23.6170213 C65.7756419,23.6170213 63.963792,22.8693009 62.4630678,21.3738602 C60.9623436,19.8784195 60.2119816,18.0729483 60.2119816,15.9574468 C60.2119816,13.8419453 60.9440421,12.0364742 62.4081633,10.5410334 C63.8722844,9.04559271 65.7024358,8.29787234 67.8986175,8.29787234 C70.0947992,8.29787234 71.9249506,9.02735562 73.3890718,10.4863222 C74.8531929,11.9452888 75.5852535,13.768997 75.5852535,15.9574468 L75.5852535,21.4285714 C75.5852535,22.0340426 75.3711257,22.550152 74.9428703,22.9768997 C74.5146149,23.4036474 73.996682,23.6170213 73.3890718,23.6170213 C72.7814615,23.6170213 72.2653588,23.4018237 71.8407637,22.9714286 C71.7455958,22.8838906 71.6650691,22.7927052 71.5991837,22.6978723 Z" id="Shape"></path>
        <path d="M82.6313364,14.9287156 L87.7765783,8.43511221 C88.2100192,7.99768015 88.736874,7.77896412 89.3571429,7.77896412 C89.9774117,7.77896412 90.5061348,7.99956564 90.9433122,8.44076866 C91.3804896,8.88197168 91.5990783,9.41556336 91.5990783,10.0415437 C91.5990783,10.6675241 91.3823579,11.1992303 90.9489171,11.6366623 L87.6644816,15.6979927 L90.9489171,19.7480102 C91.3823579,20.1929842 91.5990783,20.7284613 91.5990783,21.3544417 C91.5990783,21.980422 91.3804896,22.5140137 90.9433122,22.9552167 C90.5061348,23.3964198 89.9774117,23.6170213 89.3571429,23.6170213 C88.736874,23.6170213 88.2100192,23.3945343 87.7765783,22.9495603 L84.8732719,19.2615556 L82.3174654,22.5196702 C82.227788,22.6705088 82.1156912,22.8138055 81.9811751,22.9495603 C81.5402611,23.3945343 81.0096697,23.6170213 80.3894009,23.6170213 C79.7691321,23.6170213 79.240409,23.3964198 78.8032316,22.9552167 C78.3660541,22.5140137 78.1474654,21.980422 78.1474654,21.3544417 L78.1474654,2.26257959 C78.1474654,1.63659924 78.3660541,1.10300755 78.8032316,0.661804531 C79.240409,0.22060151 79.7691321,0 80.3894009,0 C81.0096697,0 81.5383929,0.22060151 81.9755703,0.661804531 C82.4127477,1.10300755 82.6313364,1.63659924 82.6313364,2.26257959 L82.6313364,14.9287156 Z" id="Path"></path>
        <path d="M99.3991837,18.1458967 C99.4357867,18.1896657 99.47605,18.2334347 99.5199737,18.2772036 C100.164187,18.9191489 100.940171,19.2401216 101.847926,19.2401216 L105.142199,19.2401216 C105.749809,19.2401216 106.267742,19.4534954 106.695997,19.8802432 C107.124253,20.3069909 107.338381,20.8231003 107.338381,21.4285714 C107.338381,22.0340426 107.124253,22.550152 106.695997,22.9768997 C106.267742,23.4036474 105.749809,23.6170213 105.142199,23.6170213 L101.847926,23.6170213 C99.7249506,23.6170213 97.9131007,22.8693009 96.4123766,21.3738602 C94.9116524,19.8784195 94.1612903,18.0729483 94.1612903,15.9574468 C94.1612903,13.8419453 94.9116524,12.0364742 96.4123766,10.5410334 C97.9131007,9.04559271 99.7249506,8.29787234 101.847926,8.29787234 C103.970902,8.29787234 105.782752,9.04559271 107.283476,10.5410334 C108.7842,12.0364742 109.534562,13.8419453 109.534562,15.9574468 C109.534562,16.5629179 109.320434,17.0790274 108.892179,17.5057751 C108.463924,17.9325228 107.945991,18.1458967 107.338381,18.1458967 L99.3991837,18.1458967 Z M104.296669,14.3025619 C104.260066,14.2587929 104.940882,13.7460703 104.296669,13.1041251 C103.652456,12.4621798 102.755681,12.1412071 101.847926,12.1412071 C100.940171,12.1412071 100.164187,12.4621798 99.5199737,13.1041251 C98.8757604,13.7460703 99.4357867,14.2587929 99.3991837,14.3025619 L104.296669,14.3025619 Z" id="Shape"></path>
        <path d="M113.767782,9.93920973 C114.881787,8.8449848 116.552795,8.29787234 118.780805,8.29787234 C120.630054,8.29787234 122.208228,8.93617021 123.515328,10.212766 C123.849529,10.5483283 124.139171,10.8948328 124.384252,11.2522796 C124.733307,11.6534954 124.907834,12.1276596 124.907834,12.674772 C124.907834,13.2802432 124.690603,13.7963526 124.256141,14.2231003 C123.821679,14.649848 123.29624,14.8632219 122.679824,14.8632219 C122.063407,14.8632219 121.539825,14.6480243 121.109076,14.2176292 L120.362693,13.3094225 C119.924517,12.8863222 119.397222,12.674772 118.780805,12.674772 C118.164389,12.674772 117.63895,12.8881459 117.204488,13.3148936 C116.770026,13.7416413 116.552795,14.2577508 116.552795,14.8632219 L116.552795,21.4285714 C116.552795,22.0340426 116.335564,22.550152 115.901102,22.9768997 C115.46664,23.4036474 114.941201,23.6170213 114.324785,23.6170213 C113.708368,23.6170213 113.182929,23.4036474 112.748467,22.9768997 C112.314005,22.550152 112.096774,22.0340426 112.096774,21.4285714 L112.096774,14.8632219 C112.096774,12.674772 112.653777,11.0334347 113.767782,9.93920973 Z" id="Path"></path>
        <path d="M139,9.89361702 C139,10.5117021 138.906586,10.9771277 138.719758,11.2898936 L131.433468,28.8829787 L131.422258,28.8829787 C131.325108,29.0468085 131.205538,29.1994681 131.063548,29.3409574 C130.622634,29.7803191 130.092043,30 129.471774,30 C128.851505,30 128.322782,29.7821809 127.885605,29.3465426 C127.448427,28.9109043 127.229839,28.3840426 127.229839,27.7659574 C127.229839,27.356383 127.326989,26.9840426 127.52129,26.6489362 L127.510081,26.6489362 L129.852903,20.9074468 L125.828629,11.0106383 C125.716532,10.6755319 125.623118,10.3031915 125.548387,9.89361702 C125.548387,9.27553191 125.766976,8.74867021 126.204153,8.31303191 C126.641331,7.87739362 127.170054,7.65957447 127.790323,7.65957447 C128.410591,7.65957447 128.941183,7.87553191 129.382097,8.30744681 C129.673548,8.67978723 129.886532,9.11542553 130.021048,9.6143617 L130.032258,9.6143617 L132.274194,14.9202128 L132.767419,13.7361702 L134.516129,9.6143617 L134.527339,9.6143617 C134.661855,9.11542553 134.878575,8.67978723 135.1775,8.30744681 C135.610941,7.87553191 136.137796,7.65957447 136.758065,7.65957447 C137.378333,7.65957447 137.907056,7.87739362 138.344234,8.31303191 C138.781411,8.74867021 139,9.27553191 139,9.89361702 Z" id="Path"></path>
      </g>
      <g id="symbol">
        <path d="M22.9090909,0 C31.4907713,0 38.970365,4.69448131 42.8949104,11.6430172 C43.8448541,11.4804224 44.8216097,11.3960114 45.8181818,11.3960114 C55.307438,11.3960114 63,19.0492635 63,28.4900285 C63,37.8363858 55.46052,45.4308018 46.1023146,45.5817555 L45.8181818,45.5840456 L44.4579545,45.5839744 L44.4579545,46.7948718 C44.4579545,48.5650152 43.0155992,50 41.2363636,50 L21.9068182,50 C20.1275827,50 18.6852273,48.5650152 18.6852273,46.7948718 L18.6855239,45.1975057 C8.05074403,43.2256031 0,33.9441845 0,22.7920228 C0,10.2043362 10.2567494,0 22.9090909,0 Z M13.1973492,13.130133 C12.93666,13.3896776 12.8315167,13.7632346 12.9138073,14.1162759 L12.9409212,14.2119502 L16.9593517,26.2195983 C17.1139372,26.6532496 17.5325458,26.9375086 17.9944824,26.9225108 C18.4248017,26.9151961 18.8047715,26.6505435 18.962191,26.2580485 L18.9924546,26.1720328 L20.4363293,21.3837717 C20.5796934,20.9132234 20.933367,20.5376873 21.3906775,20.3633678 L21.4980018,20.3267604 L26.3073783,18.8892251 C26.7487062,18.7561533 27.0532941,18.3546666 27.0611658,17.8956345 C27.0694357,17.4673836 26.8177703,17.0798401 26.4297306,16.9088749 L26.3445369,16.8756186 L14.283937,12.8748309 C13.902408,12.7481536 13.4817374,12.8469933 13.1973492,13.130133 Z" id="Shape"></path>
      </g>
    </g>
  </g>
</svg>
